<svg version="1" xmlns="http://www.w3.org/2000/svg" xmlns:xlink="http://www.w3.org/1999/xlink" viewBox="0 0 340 250" color-interpolation-filters="sRGB" style="margin:auto"><g fill="#50554a"><g mask="url(#a)" transform="translate(92.5 47.5)"><path class="image-rect" fill="none" d="M0 0h155v155H0z"/><svg filter="url(#b)" width="155" height="155" class="image-svg-svg primary" overflow="visible"><svg xmlns="http://www.w3.org/2000/svg" viewBox="0 0 87 87"><path d="M43.5 43.5c-3.2 1.9-7.3.7-9.2-2.5l-14-24.3c-1.9-3.2-.7-7.3 2.5-9.2C26 5.7 30.1 6.8 32 10l4.8 8.4m-11.7 6.7l-8.4-4.8c-3.2-1.9-7.3-.7-9.2 2.5C5.7 26 6.8 30.1 10 32l24.3 14c3.2 1.9 7.3.7 9.2-2.5m-25.1-6.7H8.7a6.7 6.7 0 0 0 0 13.4h28.1c3.7 0 6.7-3 6.7-6.7m-25.1 6.7L10 55.1c-3.2 1.9-4.3 6-2.5 9.2 1.9 3.2 6 4.3 9.2 2.5l24.3-14c3.2-1.9 4.3-6 2.5-9.2M25.1 61.9l-4.8 8.4c-1.9 3.2-.7 7.3 2.5 9.2 3.2 1.9 7.3.7 9.2-2.5l14-24.3c1.9-3.2.7-7.3-2.5-9.2m-6.7 25.1v9.7a6.7 6.7 0 0 0 13.4 0V50.2c0-3.7-3-6.7-6.7-6.7m6.7 25.1L55 77c1.9 3.2 6 4.3 9.2 2.5 3.2-1.9 4.3-6 2.5-9.2L52.7 46c-1.9-3.2-6-4.3-9.2-2.5m18.4 18.4l8.4 4.8c3.2 1.9 7.3.7 9.2-2.5 1.9-3.2.7-7.3-2.5-9.2L52.7 41c-3.2-1.9-7.3-.7-9.2 2.5m25.1 6.7h9.7a6.7 6.7 0 0 0 0-13.4H50.2c-3.7 0-6.7 3-6.7 6.7m25.1-6.7L77 32c3.2-1.9 4.3-6 2.5-9.2-1.9-3.2-6-4.3-9.2-2.5L46 34.3c-3.2 1.9-4.3 6-2.5 9.2m18.4-18.4l4.8-8.4c1.9-3.2.7-7.3-2.5-9.2C61 5.6 56.9 6.8 55 10L41 34.3c-1.9 3.2-.7 7.3 2.5 9.2m6.7-25.1V8.7a6.7 6.7 0 0 0-13.4 0v28.1c0 3.7 3 6.7 6.7 6.7" fill="none" stroke="#333" stroke-width="4" stroke-miterlimit="10"/></svg></svg><defs><filter id="b"><feColorMatrix values="0 0 0 0 0.3125 0 0 0 0 0.33203125 0 0 0 0 0.2890625 0 0 0 1 0" class="icon-fecolormatrix"/></filter><filter id="c"><feColorMatrix values="0 0 0 0 0.99609375 0 0 0 0 0.99609375 0 0 0 0 0.99609375 0 0 0 1 0" class="icon-fecolormatrix"/></filter></defs></g></g><mask id="a"><g fill="#fff"><path stroke-width="2" class="image-rect" d="M0 0h155v155H0z"/><svg width="155" height="155" class="image-svg-svg primary" filter="url(#c)" overflow="visible"><svg xmlns="http://www.w3.org/2000/svg" viewBox="0 0 87 87"><path d="M43.5 43.5c-3.2 1.9-7.3.7-9.2-2.5l-14-24.3c-1.9-3.2-.7-7.3 2.5-9.2C26 5.7 30.1 6.8 32 10l4.8 8.4m-11.7 6.7l-8.4-4.8c-3.2-1.9-7.3-.7-9.2 2.5C5.7 26 6.8 30.1 10 32l24.3 14c3.2 1.9 7.3.7 9.2-2.5m-25.1-6.7H8.7a6.7 6.7 0 0 0 0 13.4h28.1c3.7 0 6.7-3 6.7-6.7m-25.1 6.7L10 55.1c-3.2 1.9-4.3 6-2.5 9.2 1.9 3.2 6 4.3 9.2 2.5l24.3-14c3.2-1.9 4.3-6 2.5-9.2M25.1 61.9l-4.8 8.4c-1.9 3.2-.7 7.3 2.5 9.2 3.2 1.9 7.3.7 9.2-2.5l14-24.3c1.9-3.2.7-7.3-2.5-9.2m-6.7 25.1v9.7a6.7 6.7 0 0 0 13.4 0V50.2c0-3.7-3-6.7-6.7-6.7m6.7 25.1L55 77c1.9 3.2 6 4.3 9.2 2.5 3.2-1.9 4.3-6 2.5-9.2L52.7 46c-1.9-3.2-6-4.3-9.2-2.5m18.4 18.4l8.4 4.8c3.2 1.9 7.3.7 9.2-2.5 1.9-3.2.7-7.3-2.5-9.2L52.7 41c-3.2-1.9-7.3-.7-9.2 2.5m25.1 6.7h9.7a6.7 6.7 0 0 0 0-13.4H50.2c-3.7 0-6.7 3-6.7 6.7m25.1-6.7L77 32c3.2-1.9 4.3-6 2.5-9.2-1.9-3.2-6-4.3-9.2-2.5L46 34.3c-3.2 1.9-4.3 6-2.5 9.2m18.4-18.4l4.8-8.4c1.9-3.2.7-7.3-2.5-9.2C61 5.6 56.9 6.8 55 10L41 34.3c-1.9 3.2-.7 7.3 2.5 9.2m6.7-25.1V8.7a6.7 6.7 0 0 0-13.4 0v28.1c0 3.7 3 6.7 6.7 6.7" fill="none" stroke="#333" stroke-width="4" stroke-miterlimit="10"/></svg></svg></g></mask></svg>